<svg width="300" height="300" viewBox="0 0 300 300" fill="none" xmlns="http://www.w3.org/2000/svg">
<path opacity="0.3" d="M255.91 78.77C255.33 80.9 254.49 82.93 253.44 84.81L258.12 89.49L248.08 99.53L243.45 94.9C241.56 96.03 239.51 96.9 237.34 97.49V103.96H223.16V97.61C220.94 97.05 218.84 96.18 216.88 95.07L212.44 99.52L202.4 89.48L206.79 85.09C205.65 83.13 204.74 80.99 204.14 78.76H197.94V64.56H204.14C204.75 62.32 205.64 60.21 206.79 58.25L202.4 53.85L212.44 43.81L216.88 48.26C218.84 47.15 220.94 46.28 223.16 45.72V39.37H237.34V45.84C239.51 46.44 241.56 47.31 243.45 48.43L248.08 43.8L258.12 53.84L253.43 58.53C254.51 60.41 255.34 62.42 255.9 64.55H262.56V78.75H255.92L255.91 78.77Z" fill="#FFC921"/>
<path d="M237.745 90.1363C247.957 85.8687 252.776 74.1308 248.508 63.9188C244.241 53.7069 232.503 48.888 222.291 53.1556C212.079 57.4231 207.26 69.1611 211.528 79.373C215.795 89.585 227.533 94.4039 237.745 90.1363Z" fill="white"/>
<path opacity="0.4" d="M119.26 40.01H39.76C33.0718 40.01 27.65 45.4318 27.65 52.12V194.52C27.65 201.208 33.0718 206.63 39.76 206.63H119.26C125.948 206.63 131.37 201.208 131.37 194.52V52.12C131.37 45.4318 125.948 40.01 119.26 40.01Z" fill="#72C6FF"/>
<path d="M266.43 149.94H245.21C241.305 149.94 238.14 153.105 238.14 157.01V178.23C238.14 182.135 241.305 185.3 245.21 185.3H266.43C270.335 185.3 273.5 182.135 273.5 178.23V157.01C273.5 153.105 270.335 149.94 266.43 149.94Z" fill="#FFC921"/>
<path d="M141.24 50.67H125.32C122.387 50.67 120.01 53.0474 120.01 55.98V71.9C120.01 74.8327 122.387 77.21 125.32 77.21H141.24C144.173 77.21 146.55 74.8327 146.55 71.9V55.98C146.55 53.0474 144.173 50.67 141.24 50.67Z" fill="#72C6FF"/>
<path d="M176.71 101.72H41.5V260.83H176.71V101.72Z" fill="#FFC921"/>
<path d="M160.24 112.27H57.95C53.1506 112.27 49.26 116.161 49.26 120.96V257.6C49.26 262.399 53.1506 266.29 57.95 266.29H160.24C165.039 266.29 168.93 262.399 168.93 257.6V120.96C168.93 116.161 165.039 112.27 160.24 112.27Z" fill="white"/>
<path d="M160.25 268.29H57.95C52.06 268.29 47.26 263.5 47.26 257.6V120.96C47.26 115.07 52.05 110.27 57.95 110.27H160.25C166.14 110.27 170.94 115.06 170.94 120.96V257.61C170.94 263.5 166.15 268.3 160.25 268.3V268.29ZM57.95 114.27C54.26 114.27 51.26 117.27 51.26 120.96V257.61C51.26 261.3 54.26 264.3 57.95 264.3H160.25C163.94 264.3 166.94 261.3 166.94 257.61V120.96C166.94 117.27 163.94 114.27 160.25 114.27H57.95Z" fill="#4640C0"/>
<path d="M89.87 158.83H67.79C66.69 158.83 65.79 157.93 65.79 156.83V134.75C65.79 133.65 66.69 132.75 67.79 132.75H89.87C90.97 132.75 91.87 133.65 91.87 134.75V156.83C91.87 157.93 90.97 158.83 89.87 158.83ZM69.79 154.83H87.87V136.75H69.79V154.83Z" fill="#4640C0"/>
<path d="M80.11 150.18C79.59 150.18 79.07 149.97 78.68 149.58L74.18 145.01L77.03 142.2L80.5 145.73L100.25 135.65L102.07 139.21L81.01 149.96C80.72 150.11 80.41 150.18 80.1 150.18H80.11Z" fill="#4640C0"/>
<path d="M151.85 137.8H110.88V141.8H151.85V137.8Z" fill="#4640C0"/>
<path d="M151.85 151H110.88V155H151.85V151Z" fill="#4640C0"/>
<path d="M89.87 199.37H67.79C66.69 199.37 65.79 198.47 65.79 197.37V175.29C65.79 174.19 66.69 173.29 67.79 173.29H89.87C90.97 173.29 91.87 174.19 91.87 175.29V197.37C91.87 198.47 90.97 199.37 89.87 199.37ZM69.79 195.37H87.87V177.29H69.79V195.37Z" fill="#4640C0"/>
<path d="M80.11 190.73C79.59 190.73 79.07 190.52 78.68 190.13L74.18 185.56L77.03 182.75L80.5 186.28L100.25 176.2L102.07 179.76L81.01 190.51C80.72 190.66 80.41 190.73 80.1 190.73H80.11Z" fill="#4640C0"/>
<path d="M151.85 178.35H110.88V182.35H151.85V178.35Z" fill="#4640C0"/>
<path d="M151.85 191.55H110.88V195.55H151.85V191.55Z" fill="#4640C0"/>
<path d="M89.87 243.88H67.79C66.69 243.88 65.79 242.98 65.79 241.88V219.8C65.79 218.7 66.69 217.8 67.79 217.8H89.87C90.97 217.8 91.87 218.7 91.87 219.8V241.88C91.87 242.98 90.97 243.88 89.87 243.88ZM69.79 239.88H87.87V221.8H69.79V239.88Z" fill="#4640C0"/>
<path d="M80.11 235.23C79.59 235.23 79.07 235.02 78.68 234.63L74.18 230.06L77.03 227.25L80.5 230.78L100.25 220.7L102.07 224.26L81.01 235.01C80.72 235.16 80.41 235.23 80.1 235.23H80.11Z" fill="#4640C0"/>
<path d="M151.85 222.85H110.88V226.85H151.85V222.85Z" fill="#4640C0"/>
<path d="M151.85 236.05H110.88V240.05H151.85V236.05Z" fill="#4640C0"/>
<path d="M218.43 116.79C217.71 119.44 216.67 121.95 215.36 124.28L221.16 130.08L208.72 142.52L202.98 136.78C200.63 138.18 198.09 139.26 195.4 140V148.02H177.81V140.15C175.06 139.45 172.46 138.37 170.02 137L164.52 142.52L152.08 130.08L157.52 124.64C156.1 122.21 154.98 119.56 154.24 116.79H146.56V99.18H154.24C155 96.41 156.1 93.78 157.52 91.35L152.08 85.89L164.52 73.45L170.02 78.97C172.45 77.59 175.06 76.51 177.81 75.82V67.95H195.4V75.97C198.09 76.71 200.63 77.79 202.98 79.19L208.72 73.45L221.16 85.89L215.34 91.71C216.67 94.04 217.71 96.54 218.41 99.18H226.66V116.79H218.43Z" fill="#D1D0F7"/>
<path d="M195.903 130.906C208.566 125.614 214.542 111.059 209.25 98.3956C203.958 85.7326 189.403 79.7571 176.74 85.049C164.077 90.3408 158.101 104.896 163.393 117.559C168.685 130.222 183.24 136.198 195.903 130.906Z" fill="white"/>
<path d="M256.47 169L263.67 180.09V266.07L256.47 258.42" fill="#BEBCF4"/>
<path d="M263.67 268.07C263.13 268.07 262.6 267.85 262.21 267.44L255.01 259.79C254.25 258.99 254.29 257.72 255.09 256.96C255.89 256.2 257.16 256.24 257.92 257.04L261.67 261.02V180.68L254.79 170.08C254.19 169.15 254.45 167.91 255.38 167.31C256.31 166.71 257.54 166.97 258.15 167.9L265.35 178.99C265.56 179.31 265.67 179.69 265.67 180.08V266.06C265.67 266.88 265.17 267.62 264.41 267.92C264.17 268.01 263.92 268.06 263.67 268.06V268.07Z" fill="#4640C0"/>
<path d="M256.47 260.42H244.9V256.42H254.47V171.01H187.27C185.41 171.01 183.9 172.51 183.9 174.36V256.42H233.06V260.42H181.9C180.8 260.42 179.9 259.52 179.9 258.42V174.36C179.9 170.31 183.21 167.01 187.27 167.01H256.47C257.57 167.01 258.47 167.91 258.47 169.01V258.42C258.47 259.52 257.57 260.42 256.47 260.42Z" fill="#4640C0"/>
<path d="M263.68 264.07H247.96V268.07H263.68V264.07Z" fill="#4640C0"/>
<path d="M236.12 268.07H189.55C184.23 268.07 179.89 263.74 179.89 258.42H183.89C183.89 261.54 186.43 264.07 189.55 264.07H236.12V268.07Z" fill="#4640C0"/>
<path d="M222.8 243.06C219.44 243.06 216.09 242.38 212.91 241.01C206.75 238.37 201.98 233.48 199.49 227.25C197 221.02 197.09 214.2 199.73 208.03C202.37 201.87 207.26 197.1 213.49 194.61C219.72 192.12 226.54 192.2 232.71 194.85C238.87 197.49 243.64 202.38 246.13 208.61C248.62 214.84 248.53 221.66 245.89 227.83C243.25 234 238.36 238.76 232.13 241.25C229.11 242.46 225.96 243.06 222.81 243.06H222.8ZM222.8 196.82C220.15 196.82 217.5 197.33 214.96 198.34C209.72 200.43 205.62 204.44 203.39 209.62C201.17 214.8 201.1 220.54 203.19 225.78C205.28 231.02 209.29 235.12 214.47 237.35C219.65 239.57 225.39 239.64 230.62 237.55C235.86 235.46 239.96 231.45 242.19 226.27C244.41 221.09 244.48 215.35 242.39 210.11C240.3 204.87 236.29 200.77 231.11 198.54C228.44 197.39 225.62 196.82 222.79 196.82H222.8Z" fill="#4640C0"/>
<path d="M233.46 253.39C232.67 253.39 231.92 252.91 231.6 252.13L227.14 240.96L230.85 239.48L234.57 248.79L235.54 248.4L231.82 239.09L235.53 237.61L239.99 248.78C240.19 249.27 240.18 249.82 239.97 250.31C239.76 250.8 239.37 251.18 238.87 251.38L234.19 253.25C233.95 253.35 233.7 253.39 233.45 253.39H233.46Z" fill="#4640C0"/>
<path d="M241.92 277.61C241.26 277.61 240.6 277.48 239.97 277.21C238.76 276.69 237.82 275.73 237.33 274.5L229.92 255.97C228.91 253.44 230.14 250.56 232.67 249.55L237.42 247.65C239.95 246.64 242.83 247.87 243.84 250.4L251.25 268.94C251.74 270.17 251.72 271.51 251.2 272.72C250.68 273.93 249.72 274.87 248.49 275.36L243.74 277.26C243.15 277.5 242.53 277.62 241.91 277.62L241.92 277.61ZM239.26 251.29C239.16 251.29 239.04 251.31 238.91 251.36L234.16 253.26C233.68 253.45 233.44 254 233.64 254.48L241.05 273.01C241.18 273.33 241.42 273.47 241.55 273.53C241.68 273.59 241.96 273.66 242.27 273.53L247.02 271.63C247.5 271.44 247.74 270.89 247.54 270.41L240.13 251.87C240 251.56 239.76 251.41 239.63 251.35C239.55 251.32 239.42 251.27 239.26 251.27V251.29Z" fill="#4640C0"/>
<path d="M210.61 179.28H193.58V183.28H210.61V179.28Z" fill="#4640C0"/>
<path d="M227.61 179.28H219.09V183.28H227.61V179.28Z" fill="#4640C0"/>
</svg>
